<svg id="Layer_1" data-name="Layer 1" xmlns="http://www.w3.org/2000/svg" xmlns:xlink="http://www.w3.org/1999/xlink" viewBox="0 0 173.53 203.85"><defs><style>.cls-1{fill:none;}.cls-2{clip-path:url(#clip-path);}.cls-3{fill:#078c81;}.cls-4{fill:#e83f53;}.cls-5{fill:#fff;}.cls-6{fill:#fd9a8b;}.cls-12,.cls-7{fill:#fd7058;}.cls-8{fill:#fd8977;}.cls-9{fill:#fd5f47;}.cls-10{fill:#1e1c36;}.cls-11{fill:#ebb084;}.cls-12{opacity:0.49;}.cls-13{fill:#ebc5a9;}.cls-14{fill:#25110d;}.cls-15{fill:#fd5f44;}.cls-16{fill:#0ac2b2;}</style><clipPath id="clip-path" transform="translate(-43.39 -58.15)"><circle class="cls-1" cx="130.5" cy="130.5" r="130.5"/></clipPath></defs><title>profileAsset 4mdpi</title><path class="cls-3" d="M214.1,147.6s-8.37,27.78-51.1,8.15V122.92s25.47,13.51,44.33,10.14C217.62,131.22,214.1,147.6,214.1,147.6Z" transform="translate(-43.39 -58.15)"/><path class="cls-4" d="M183.31,237.06c-29.63-11.92-39.39-26.74-36.86-48.06H113.86c2.53,21.32-7.22,36.14-36.86,48.06S43.39,262,43.39,262H216.92S213,249,183.31,237.06Z" transform="translate(-43.39 -58.15)"/><path class="cls-5" d="M92.48,229.49l.88.71c11.19,8.93,23.91,13.65,36.8,13.65s25.61-4.72,36.8-13.65l.88-.71c-1-.61-2-1.23-2.93-1.86-10.32,8.24-22.16,12.94-34.75,12.94s-24.44-4.7-34.75-12.94h0C94.47,228.26,93.49,228.88,92.48,229.49Z" transform="translate(-43.39 -58.15)"/><path class="cls-6" d="M95.41,227.73c10.31,8.24,22.15,12.94,34.75,12.94s24.43-4.7,34.75-12.94c-15.24-10.25-20.29-22.65-18.39-38.73H113.79C115.7,205.08,110.65,217.48,95.41,227.73Z" transform="translate(-43.39 -58.15)"/><path class="cls-7" d="M146.52,189H113.79c1.28,10.76-.58,19.86-6.51,27.79a47.21,47.21,0,0,0,45.85.14C147.13,209,145.24,199.82,146.52,189Z" transform="translate(-43.39 -58.15)"/><path class="cls-8" d="M89.19,153.17c5.31,10.16,3.08,21.82-5,26s-18.9-.61-24.21-10.77-3.09-21.82,5-26S83.87,143,89.19,153.17Z" transform="translate(-43.39 -58.15)"/><path class="cls-9" d="M84.52,172.57c0-.41-.11-.77-.15-1.17q.09.43.12.72a14.88,14.88,0,0,0-.88-5.09A24.65,24.65,0,0,0,63.33,148.1a53.25,53.25,0,0,1,16.39,14.84C73.93,160.58,65,165.57,65,165.57c10.61-2.81,15.43-.48,17.65,2.22A23.33,23.33,0,0,1,84.52,172.57Z" transform="translate(-43.39 -58.15)"/><path class="cls-8" d="M170.69,153.17c-5.31,10.16-3.08,21.82,5,26s18.9-.61,24.21-10.77,3.09-21.82-5-26S176,143,170.69,153.17Z" transform="translate(-43.39 -58.15)"/><path class="cls-9" d="M175.36,172.57c0-.41.11-.77.15-1.17q-.09.43-.12.72a14.88,14.88,0,0,1,.88-5.09,24.65,24.65,0,0,1,20.28-18.93,53.08,53.08,0,0,0-16.38,14.84c5.78-2.36,14.72,2.63,14.72,2.63-10.61-2.81-15.43-.48-17.65,2.22A23.33,23.33,0,0,0,175.36,172.57Z" transform="translate(-43.39 -58.15)"/><path class="cls-10" d="M186.55,129.67s5,42.46-16.34,47.94L152.16,150l9.21-52.07Z" transform="translate(-43.39 -58.15)"/><path class="cls-10" d="M73.08,125.53s-2.77,35.64,13.39,47.08l11.26-77Z" transform="translate(-43.39 -58.15)"/><path class="cls-11" d="M115.05,95a34,34,0,0,0-34,33.7l-.34,32.47c0,29.69,22,53.76,49.17,53.76S179,190.86,179,161.17l-.09-34.45A31.81,31.81,0,0,0,147.1,95Z" transform="translate(-43.39 -58.15)"/><path class="cls-12" d="M179,136l0-9.24A31.81,31.81,0,0,0,147.17,95H115.05a34,34,0,0,0-34,33.7v.8C100.07,125.19,133.87,122.09,179,136Z" transform="translate(-43.39 -58.15)"/><path class="cls-13" d="M129.94,205.68A55.77,55.77,0,0,1,84.81,183c7.59,19,24.94,32.27,45.13,32.27S167.48,202,175.07,183A55.77,55.77,0,0,1,129.94,205.68Z" transform="translate(-43.39 -58.15)"/><path class="cls-14" d="M155.28,147.35c0,3.86-1.3,7-2.92,7s-2.92-3.13-2.92-7,1.31-7,2.92-7S155.28,143.48,155.28,147.35Z" transform="translate(-43.39 -58.15)"/><path class="cls-10" d="M166.12,139.69c.38-.22-15.81-10.45-25.8-10.08-.13.16.2-8.93,13.45-4.17C166.62,130.74,166,139.84,166.12,139.69Z" transform="translate(-43.39 -58.15)"/><ellipse class="cls-14" cx="64.12" cy="89.19" rx="2.92" ry="6.99"/><path class="cls-10" d="M92.28,139.69c-.38-.22,15.81-10.45,25.81-10.08.12.16-.2-8.93-13.46-4.17C91.78,130.74,92.4,139.84,92.28,139.69Z" transform="translate(-43.39 -58.15)"/><path class="cls-15" d="M100.52,171.1A1.28,1.28,0,0,1,100,171a1.3,1.3,0,0,1-.6-1.73l4.08-8.45a1.29,1.29,0,0,1,2.33,1.13l-4.08,8.45A1.29,1.29,0,0,1,100.52,171.1Z" transform="translate(-43.39 -58.15)"/><path class="cls-15" d="M92.36,171.1a1.28,1.28,0,0,1-.57-.13,1.3,1.3,0,0,1-.6-1.73l4.08-8.45a1.29,1.29,0,1,1,2.33,1.13l-4.08,8.45A1.29,1.29,0,0,1,92.36,171.1Z" transform="translate(-43.39 -58.15)"/><path class="cls-15" d="M158.59,171.1a1.31,1.31,0,0,1-1.17-.73l-4.08-8.45a1.29,1.29,0,0,1,2.33-1.13l4.08,8.45a1.28,1.28,0,0,1-.6,1.73A1.24,1.24,0,0,1,158.59,171.1Z" transform="translate(-43.39 -58.15)"/><path class="cls-15" d="M166.75,171.1a1.31,1.31,0,0,1-1.17-.73l-4.08-8.45a1.29,1.29,0,0,1,2.33-1.13l4.08,8.45a1.29,1.29,0,0,1-.6,1.73A1.24,1.24,0,0,1,166.75,171.1Z" transform="translate(-43.39 -58.15)"/><path class="cls-15" d="M118.38,180.5c-.63-.41-1.2-.82-1.7-1.22a1.38,1.38,0,0,1,1.73-2.16c.48.37,11.58,9.06,19.49,1.16a1.39,1.39,0,1,1,2,2C133,187.14,123.6,183.91,118.38,180.5Z" transform="translate(-43.39 -58.15)"/><path class="cls-15" d="M117.2,168.26s12.92,6.59,25.84,0c0,0,2.64-9-12.92-9C115.07,159.34,117.2,168.26,117.2,168.26Z" transform="translate(-43.39 -58.15)"/><path class="cls-16" d="M186.55,129.67S114,107.78,73.08,125.53c0,0-2.15-33.07,7.81-44,9.6-10.5,30.35-20.73,50.79-20,24.92.85,49.39,14.47,52.74,20.38C196.61,103.35,186.55,129.67,186.55,129.67Z" transform="translate(-43.39 -58.15)"/><path class="cls-3" d="M104,112.7v6.2c17.34-1.11,35.69.92,50.71,3.51l.91-8.07L128.39,99.93Z" transform="translate(-43.39 -58.15)"/><path class="cls-3" d="M123.47,61.59c0,1.9,4.08,3.43,9.12,3.43s9.12-1.53,9.12-3.43-4.08-3.44-9.12-3.44S123.47,59.69,123.47,61.59Z" transform="translate(-43.39 -58.15)"/><path class="cls-10" d="M155.44,114.34s-28.11-8.25-51.61-1.64c0,0,3.33-24.06,23.7-27S155.44,114.34,155.44,114.34Z" transform="translate(-43.39 -58.15)"/></svg>